<svg height="18" viewBox="0 0 18 18" width="18" xmlns="http://www.w3.org/2000/svg"><g fill="#fff"><path d="m13.032 18h-8.065a4.979 4.979 0 0 1 -4.967-4.968v-8.066a4.98 4.98 0 0 1 4.967-4.966h8.065a4.981 4.981 0 0 1 4.968 4.966v8.066a4.981 4.981 0 0 1 -4.968 4.968zm-8.065-16.4a3.381 3.381 0 0 0 -3.367 3.367v8.066a3.382 3.382 0 0 0 3.367 3.367h8.066a3.382 3.382 0 0 0 3.367-3.367v-8.066a3.381 3.381 0 0 0 -3.368-3.367zm4.033 12.038a4.638 4.638 0 0 1 0-9.276 4.639 4.639 0 0 1 0 9.277zm0-7.679a3.042 3.042 0 1 0 1.164.232 3.023 3.023 0 0 0 -1.164-.232z"/><path d="m1.167 0a1.169 1.169 0 1 0 .833.343 1.169 1.169 0 0 0 -.833-.343z" transform="translate(12.669 3.008)"/></g></svg>