<svg height="49.427" viewBox="0 0 46 49.427" width="46" xmlns="http://www.w3.org/2000/svg"><g fill="#283e2c"><path d="m91.7 17.093h-.075a4.107 4.107 0 0 0 -2.807 1.123 4.283 4.283 0 0 0 -4.008-2.97 4.15 4.15 0 0 0 -3 1.341 4.217 4.217 0 0 0 -3.81-2.462h-.08a3.817 3.817 0 0 0 -2.525.851v-10.482a4.268 4.268 0 1 0 -8.525 0l-.018 20.731-1.258-1.529a5.824 5.824 0 0 0 -4.114-2.161 5.733 5.733 0 0 0 -4.293 1.519l-1.013.841a.848.848 0 0 0 -.211 1.044l9.855 18.92a10.086 10.086 0 0 0 8.9 5.571h11.051c5.6 0 10.17-4.845 10.176-10.816 0-2.668.005-4.652.007-6.268.006-4.352.008-5.979 0-10.769a4.382 4.382 0 0 0 -4.252-4.484zm2.559 15.254c0 1.616 0 3.595-.007 6.263 0 5.036-3.809 9.121-8.479 9.121h-11.057a8.4 8.4 0 0 1 -7.4-4.657l-9.534-18.32.5-.413c.011-.009.022-.017.032-.027a4.047 4.047 0 0 1 3.043-1.091 4.142 4.142 0 0 1 2.921 1.547l2.758 3.357a.848.848 0 0 0 1.5-.538l.016-23.1a2.579 2.579 0 1 1 5.14 0v13.933.145.061 5.956a.848.848 0 0 0 1.7 0v-6.133a2.57 2.57 0 0 1 2.525-2.63h.083a2.669 2.669 0 0 1 2.589 2.747v5.448a.848.848 0 0 0 1.7 0v-4.275a2.556 2.556 0 1 1 5.089 0v4.033a.848.848 0 1 0 1.7 0v-2.184a2.687 2.687 0 0 1 2.551-2.8h.071a2.689 2.689 0 0 1 2.555 2.791c.009 4.787.006 6.419.001 10.766zm0 0" transform="translate(-49.956)"/><path d="m260.922 36.35h10.992l-1.971 1.971a.848.848 0 1 0 1.2 1.2l3.406-3.406a.848.848 0 0 0 0-1.2l-3.406-3.406a.848.848 0 0 0 -1.2 1.2l1.945 1.945h-10.966a.848.848 0 1 0 0 1.7zm0 0" transform="translate(-232.516 -27.949)"/><path d="m3 36.35h10.9a.848.848 0 1 0 0-1.7h-10.872l1.945-1.945a.848.848 0 0 0 -1.2-1.2l-3.405 3.409a.849.849 0 0 0 0 1.2l3.406 3.406a.848.848 0 1 0 1.2-1.2zm0 0" transform="translate(-.12 -27.949)"/></g></svg>