<svg xmlns="http://www.w3.org/2000/svg" width="15.752" height="13.414" viewBox="0 0 15.752 13.414"><path d="M15.752,1.589a6.253,6.253,0,0,1-1.857.533A3.375,3.375,0,0,0,15.317.248a6.279,6.279,0,0,1-2.053.822A3.16,3.16,0,0,0,10.906,0,3.313,3.313,0,0,0,7.674,3.388a3.5,3.5,0,0,0,.084.771A9.043,9.043,0,0,1,1.1.621a3.494,3.494,0,0,0-.437,1.7A3.43,3.43,0,0,0,2.1,5.14,3.107,3.107,0,0,1,.633,4.715v.043A3.353,3.353,0,0,0,3.225,8.08a3.089,3.089,0,0,1-1.46.058A3.258,3.258,0,0,0,4.784,10.49,6.3,6.3,0,0,1,.771,11.94,6.139,6.139,0,0,1,0,11.892a8.838,8.838,0,0,0,4.954,1.522c5.944,0,9.194-5.161,9.194-9.636,0-.148,0-.293-.009-.438a6.769,6.769,0,0,0,1.613-1.751Z" fill="#fff"/></svg>